# xmcd
#
# Track frame offsets: 
#        150
#        15928
#        35075
#        48159
#        64755
#        85212
#        99440
#        114104
#        131872
#        144483
#        165580
#
# Disc length: 2415 seconds
#
# Revision: 3
# Processed by: cddbd v1.5.2PL0 Copyright (c) Steve Scherf et al.
# Submitted via: ExactAudioCopyFreeDBPlugin 1.0
#
DISCID=86096d0b
DTITLE=Robbie Fulks - Revenge! 1 (Standing)
DYEAR=2007
DGENRE=Alternative
TTITLE0=We're On The Road
TTITLE1=You Shouldn't Have
TTITLE2=Fixin' To Fall
TTITLE3=Mad At A Girl
TTITLE4=Buck Starts Here, The
TTITLE5=Goodbye, Good-Lookin'
TTITLE6=Busy Not Crying
TTITLE7=You Don't Mean It (soundcheck)
TTITLE8=Rock Bottom, Pop. 1
TTITLE9=Cigarette State
TTITLE10=Let's Kill Saturday Night
EXTD=
EXTT0=
EXTT1=
EXTT2=
EXTT3=
EXTT4=
EXTT5=
EXTT6=
EXTT7=
EXTT8=
EXTT9=
EXTT10=
PLAYORDER=
